<?xml version="1.0" encoding="UTF-8" standalone="no"?>
<svg
   viewBox="0 0 300.00002 77.807871"
   version="1.1"
   id="svg19"
   sodipodi:docname="KalAO_logo.svg"
   inkscape:version="1.2.2 (b0a8486541, 2022-12-01)"
   width="300"
   height="77.807869"
   inkscape:export-filename="KalAO_logo.png"
   inkscape:export-xdpi="345.60001"
   inkscape:export-ydpi="345.60001"
   xmlns:inkscape="http://www.inkscape.org/namespaces/inkscape"
   xmlns:sodipodi="http://sodipodi.sourceforge.net/DTD/sodipodi-0.dtd"
   xmlns="http://www.w3.org/2000/svg"
   xmlns:svg="http://www.w3.org/2000/svg">
  <sodipodi:namedview
     id="namedview21"
     pagecolor="#ffffff"
     bordercolor="#666666"
     borderopacity="1.0"
     inkscape:showpageshadow="2"
     inkscape:pageopacity="0.0"
     inkscape:pagecheckerboard="0"
     inkscape:deskcolor="#d1d1d1"
     showgrid="false"
     inkscape:zoom="1.8617039"
     inkscape:cx="180.7484"
     inkscape:cy="65.531368"
     inkscape:window-width="1920"
     inkscape:window-height="1015"
     inkscape:window-x="1920"
     inkscape:window-y="0"
     inkscape:window-maximized="1"
     inkscape:current-layer="svg19" />
  <defs
     id="defs4">
    <style
       id="style2">.cls-1{fill:#257ff9;}</style>
  </defs>
  <g
     id="Layer_3"
     data-name="Layer 3"
     transform="matrix(1.2858392,0,0,1.2858392,-23.492282,-22.79682)">
    <path
       class="cls-1"
       d="M 39,40.3 57.05,75.7 H 48.18 L 33.74,47.36 26.59,56.94 V 75.7 H 18.27 V 18.24 h 8.32 V 44.3 L 45.75,18.24 h 9.57 z"
       id="path6" />
    <path
       class="cls-1"
       d="m 138.91,75.7 23.47,-57.54 23.47,57.54 h -8.55 l -1.73,-4.56 h -26.3 l -1.8,4.56 z M 152.1,63.77 h 20.56 L 162.38,37.39 Z"
       id="path8" />
    <path
       class="cls-1"
       d="m 85,33.86 a 20.18,20.18 0 0 1 8.11,1.65 21.78,21.78 0 0 1 6.63,4.49 20.82,20.82 0 0 1 4.5,6.67 20.53,20.53 0 0 1 1.65,8.17 V 75.7 H 97.8 v -4.36 a 22.3,22.3 0 0 1 -5.88,3.19 20.89,20.89 0 0 1 -15,-0.48 A 21,21 0 0 1 65.78,62.94 20.19,20.19 0 0 1 64.13,54.82 20.7,20.7 0 0 1 65.77,46.65 20.85,20.85 0 0 1 76.86,35.51 20.14,20.14 0 0 1 85,33.86 Z m 0,33.75 a 12.19,12.19 0 0 0 5,-1 13,13 0 0 0 6.79,-6.84 12.13,12.13 0 0 0 1,-4.93 12.41,12.41 0 0 0 -1,-5 A 13.07,13.07 0 0 0 90,43 a 12.69,12.69 0 0 0 -10,0 13.1,13.1 0 0 0 -6.78,6.83 12.25,12.25 0 0 0 -1,5 12,12 0 0 0 1,4.93 13.07,13.07 0 0 0 6.78,6.83 12.27,12.27 0 0 0 5,1.02 z"
       id="path10" />
    <path
       class="cls-1"
       d="m 119.62,18.16 h 8.09 V 75.7 h -8.09 z"
       id="path12" />
    <path
       class="cls-1"
       d="M 249.35,35.46 A 28.68,28.68 0 0 0 234.08,20 27.92,27.92 0 0 0 222.86,17.73 27.64,27.64 0 0 0 211.67,20 a 28.7,28.7 0 0 0 -15.23,15.42 28.94,28.94 0 0 0 -2.23,11.35 29.82,29.82 0 0 0 0.64,6.17 6.52,6.52 0 0 1 -3.37,-0.45 0.71,0.71 0 0 0 -0.81,0.19 0.69,0.69 0 0 0 0,0.83 13.11,13.11 0 0 0 6.07,5 c 0.19,0.42 0.39,0.83 0.59,1.23 -2,2.53 -4,6.2 -4,8.14 0,1.58 0.73,2.76 1.86,3.07 a 2.29,2.29 0 0 0 1.32,0 c -0.45,0.71 -1.07,1.6 -1.94,2.8 -1,1.41 -0.93,3.12 0.18,4 a 2.48,2.48 0 0 0 1.53,0.49 c 1.38,0 3.27,-0.92 5.43,-3.53 a 11.45,11.45 0 0 0 2.29,-6.2 29.23,29.23 0 0 0 7.69,4.91 27.81,27.81 0 0 0 11.19,2.27 28.09,28.09 0 0 0 11.22,-2.27 28.79,28.79 0 0 0 9.14,-6.21 29.14,29.14 0 0 0 6.11,-9.21 28.37,28.37 0 0 0 2.23,-11.22 28.94,28.94 0 0 0 -2.23,-11.32 z M 221.11,26 c 0.82,-0.09 1.55,-0.13 2.25,-0.14 v 0 A 22.53,22.53 0 0 1 243.4,38 c -1.1,-0.61 -2.21,-1.16 -3.33,-1.68 -6.94,-3.19 -14,-4.59 -19.07,-3.61 v 0 a 11.11,11.11 0 0 0 -2.82,0.94 l 0.06,-0.16 a 21.59,21.59 0 0 1 1.51,-3.39 10,10 0 0 0 1.36,-3.57 c -0.03,-0.19 -0.02,-0.36 0,-0.53 z m 18.59,15.94 a 49.31,49.31 0 0 0 -11.32,-4.76 c -4.23,-1.2 -7.24,-1.13 -9.22,0.23 a 5,5 0 0 0 -1.6,1.82 12.9,12.9 0 0 1 0,-3.33 2.33,2.33 0 0 1 0.05,-0.28 7.64,7.64 0 0 1 3.55,-1.54 18.51,18.51 0 0 1 4.6,0 19.84,19.84 0 0 1 13.94,7.86 z M 207.87,24 a 28.71,28.71 0 0 1 11.79,-4.36 c 0.05,1.26 0.12,3.83 0.07,5.17 a 23.92,23.92 0 0 0 -14.28,7.75 l -5.14,-0.92 A 20.41,20.41 0 0 1 207.87,24 Z m -5.15,43.38 v 0.24 c -0.28,2.21 -0.55,4.29 -2.13,6.21 -2.48,3 -4.36,3.33 -5,2.82 -0.5,-0.38 -0.45,-1.27 0.11,-2 2.07,-2.88 3,-4.23 3.18,-5.88 a 0.68,0.68 0 0 0 -0.46,-0.74 0.66,0.66 0 0 0 -0.23,0 0.7,0.7 0 0 0 -0.6,0.33 c -0.77,1.23 -1.57,1.52 -2,1.39 -0.43,-0.13 -0.83,-0.8 -0.84,-1.74 0,-1.38 1.63,-4.42 3.34,-6.76 a 16.57,16.57 0 0 1 1.89,-2.2 0.71,0.71 0 0 0 0.17,-0.77 0.7,0.7 0 0 0 -0.64,-0.44 7.76,7.76 0 0 1 -3.53,-1.1 12.34,12.34 0 0 1 -2.98,-2.36 9.62,9.62 0 0 0 2.14,0 c 1.19,-0.12 2.57,-0.4 4.36,-0.77 l 0.35,-0.07 a 19.2,19.2 0 0 0 1.57,4.78 v 0.05 a 24,24 0 0 0 2.41,4.17 16.29,16.29 0 0 0 -1.11,4.82 z m 2.85,-7.45 a 12.07,12.07 0 0 0 -0.88,1.15 c -0.57,-1 -1.41,-2.37 -1.94,-3.33 l -0.06,-0.11 a 20.44,20.44 0 0 1 -1.56,-5 v 0 A 22.93,22.93 0 0 1 200.75,48.57 22.65,22.65 0 0 1 216.34,27 c 0.26,-0.08 0.53,-0.17 0.8,-0.24 a 21,21 0 0 1 2.55,-0.59 v 0.18 a 9.07,9.07 0 0 1 -1.21,3.06 19.07,19.07 0 0 0 -2.13,5.66 v 0.2 c 0,0.13 -0.06,0.27 -0.08,0.41 a 16.18,16.18 0 0 0 0.27,5.64 24,24 0 0 1 0.37,7.09 c -0.39,4.19 -4.53,6.82 -7.85,8.93 -0.85,0.54 -1.62,1 -2.26,1.52 a 6.78,6.78 0 0 0 -1.23,1.05 z m 35.65,-5 a 20.86,20.86 0 0 1 -4.28,6.61 20.22,20.22 0 0 1 -6.35,4.46 18.57,18.57 0 0 1 -7.73,1.65 18.3,18.3 0 0 1 -7.7,-1.65 20.63,20.63 0 0 1 -4.63,-2.9 59.52,59.52 0 0 0 12.71,-2.49 5.3386913,5.3386913 0 0 0 9.76,-4.33 54.36,54.36 0 0 0 9.69,-7.28 20.55,20.55 0 0 1 -1.47,5.9 z M 232,54.71 a 5.31,5.31 0 0 0 -9.35,3.48 6,6 0 0 0 0.06,0.61 59.23,59.23 0 0 1 -14.05,2.51 c -0.39,-0.41 -0.77,-0.84 -1.12,-1.29 0.6,-0.45 1.36,-0.94 2.2,-1.47 3.39,-2.16 8,-5.11 8.49,-10 a 23.34,23.34 0 0 0 -0.15,-6 c 0.19,-2 0.78,-3.21 1.87,-4 1.58,-1.09 4.29,-1.1 8,0 a 43.5,43.5 0 0 1 13.41,6.2 6,6 0 0 1 1.37,1.56 53.91,53.91 0 0 1 -10.73,8.4 z M 243.7,42 a 1.8,1.8 0 0 1 -1.3,0.55 v 0 a 1.91,1.91 0 0 1 -0.63,-0.13 1.81,1.81 0 0 1 -1.13,-1.6 c 0,0 0,0 0,-0.07 a 1.81,1.81 0 0 1 0.81,-1.51 1.87,1.87 0 0 1 0.8,-0.28 h 0.19 0.12 A 1.77,1.77 0 0 1 244,40 1.81,1.81 0 0 1 244.18,40.77 1.79,1.79 0 0 1 243.7,42 Z"
       id="path14" />
    <path
       class="cls-1"
       d="m 211.35,38.14 a 2.65,2.65 0 1 0 -2.65,-2.65 2.65,2.65 0 0 0 2.65,2.65 z m 0,-3.9 a 1.25,1.25 0 1 1 -1.25,1.25 1.25,1.25 0 0 1 1.25,-1.25 z"
       id="path16" />
  </g>
</svg>
