<?xml version="1.0" encoding="UTF-8" standalone="no"?>
<svg
   viewBox="0 0 62.000003 62.000001"
   version="1.1"
   id="svg19"
   sodipodi:docname="KalAO_icon.svg"
   width="62"
   height="62"
   inkscape:version="1.2.2 (b0a8486541, 2022-12-01)"
   xmlns:inkscape="http://www.inkscape.org/namespaces/inkscape"
   xmlns:sodipodi="http://sodipodi.sourceforge.net/DTD/sodipodi-0.dtd"
   xmlns="http://www.w3.org/2000/svg"
   xmlns:svg="http://www.w3.org/2000/svg">
  <sodipodi:namedview
     id="namedview21"
     pagecolor="#ffffff"
     bordercolor="#666666"
     borderopacity="1.0"
     inkscape:showpageshadow="2"
     inkscape:pageopacity="0.0"
     inkscape:pagecheckerboard="0"
     inkscape:deskcolor="#d1d1d1"
     showgrid="false"
     inkscape:zoom="2.6328468"
     inkscape:cx="-35.702799"
     inkscape:cy="20.889936"
     inkscape:window-width="1920"
     inkscape:window-height="1015"
     inkscape:window-x="0"
     inkscape:window-y="0"
     inkscape:window-maximized="1"
     inkscape:current-layer="Layer_3" />
  <defs
     id="defs4">
    <style
       id="style2">.cls-1{fill:#257ff9;}</style>
  </defs>
  <g
     id="Layer_3"
     data-name="Layer 3"
     transform="translate(-190.53125,-17.729137)">
    <path
       class="cls-1"
       d="m 249.8253,36.204323 a 28.68,28.68 0 0 0 -15.27,-15.46 27.92,27.92 0 0 0 -11.22,-2.27 27.64,27.64 0 0 0 -11.19,2.27 28.7,28.7 0 0 0 -15.23,15.42 28.94,28.94 0 0 0 -2.23,11.35 29.82,29.82 0 0 0 0.64,6.17 6.52,6.52 0 0 1 -3.37,-0.45 0.71,0.71 0 0 0 -0.81,0.19 0.69,0.69 0 0 0 0,0.83 13.11,13.11 0 0 0 6.07,5 c 0.19,0.42 0.39,0.83 0.59,1.23 -2,2.53 -4,6.2 -4,8.14 0,1.58 0.73,2.76 1.86,3.07 a 2.29,2.29 0 0 0 1.32,0 c -0.45,0.71 -1.07,1.6 -1.94,2.8 -1,1.41 -0.93,3.12 0.18,4 a 2.48,2.48 0 0 0 1.53,0.49 c 1.38,0 3.27,-0.92 5.43,-3.53 a 11.45,11.45 0 0 0 2.29,-6.2 29.23,29.23 0 0 0 7.69,4.91 27.81,27.81 0 0 0 11.19,2.27 28.09,28.09 0 0 0 11.22,-2.27 28.79,28.79 0 0 0 9.14,-6.21 29.14,29.14 0 0 0 6.11,-9.21 28.37,28.37 0 0 0 2.23,-11.22 28.94,28.94 0 0 0 -2.23,-11.32 z m -28.24,-9.46 c 0.82,-0.09 1.55,-0.13 2.25,-0.14 v 0 a 22.53,22.53 0 0 1 20.04,12.14 c -1.1,-0.61 -2.21,-1.16 -3.33,-1.68 -6.94,-3.19 -14,-4.59 -19.07,-3.61 v 0 a 11.11,11.11 0 0 0 -2.82,0.94 l 0.06,-0.16 a 21.59,21.59 0 0 1 1.51,-3.39 10,10 0 0 0 1.36,-3.57 c -0.03,-0.19 -0.02,-0.36 0,-0.53 z m 18.59,15.94 a 49.31,49.31 0 0 0 -11.32,-4.76 c -4.23,-1.2 -7.24,-1.13 -9.22,0.23 a 5,5 0 0 0 -1.6,1.82 12.9,12.9 0 0 1 0,-3.33 2.33,2.33 0 0 1 0.05,-0.28 7.64,7.64 0 0 1 3.55,-1.54 18.51,18.51 0 0 1 4.6,0 19.84,19.84 0 0 1 13.94,7.86 z m -31.83,-17.94 a 28.71,28.71 0 0 1 11.79,-4.36 c 0.05,1.26 0.12,3.83 0.07,5.17 a 23.92,23.92 0 0 0 -14.28,7.75 l -5.14,-0.92 a 20.41,20.41 0 0 1 7.56,-7.64 z m -5.15,43.38 v 0.24 c -0.28,2.21 -0.55,4.29 -2.13,6.21 -2.48,3 -4.36,3.33 -5,2.82 -0.5,-0.38 -0.45,-1.27 0.11,-2 2.07,-2.88 3,-4.23 3.18,-5.88 a 0.68,0.68 0 0 0 -0.46,-0.74 0.66,0.66 0 0 0 -0.23,0 0.7,0.7 0 0 0 -0.6,0.33 c -0.77,1.23 -1.57,1.52 -2,1.39 -0.43,-0.13 -0.83,-0.8 -0.84,-1.74 0,-1.38 1.63,-4.42 3.34,-6.76 a 16.57,16.57 0 0 1 1.89,-2.2 0.71,0.71 0 0 0 0.17,-0.77 0.7,0.7 0 0 0 -0.64,-0.44 7.76,7.76 0 0 1 -3.53,-1.1 12.34,12.34 0 0 1 -2.98,-2.36 9.62,9.62 0 0 0 2.14,0 c 1.19,-0.12 2.57,-0.4 4.36,-0.77 l 0.35,-0.07 a 19.2,19.2 0 0 0 1.57,4.78 v 0.05 a 24,24 0 0 0 2.41,4.17 16.29,16.29 0 0 0 -1.11,4.82 z m 2.85,-7.45 a 12.07,12.07 0 0 0 -0.88,1.15 c -0.57,-1 -1.41,-2.37 -1.94,-3.33 l -0.06,-0.11 a 20.44,20.44 0 0 1 -1.56,-5 v 0 a 22.93,22.93 0 0 1 -0.38,-4.07 22.65,22.65 0 0 1 15.59,-21.57 c 0.26,-0.08 0.53,-0.17 0.8,-0.24 a 21,21 0 0 1 2.55,-0.59 v 0.18 a 9.07,9.07 0 0 1 -1.21,3.06 19.07,19.07 0 0 0 -2.13,5.66 v 0.2 c 0,0.13 -0.06,0.27 -0.08,0.41 a 16.18,16.18 0 0 0 0.27,5.64 24,24 0 0 1 0.37,7.09 c -0.39,4.19 -4.53,6.82 -7.85,8.93 -0.85,0.54 -1.62,1 -2.26,1.52 a 6.78,6.78 0 0 0 -1.23,1.05 z m 35.65,-5 a 20.86,20.86 0 0 1 -4.28,6.61 20.22,20.22 0 0 1 -6.35,4.46 18.57,18.57 0 0 1 -7.73,1.65 18.3,18.3 0 0 1 -7.7,-1.65 20.63,20.63 0 0 1 -4.63,-2.9 59.52,59.52 0 0 0 12.71,-2.49 5.3386913,5.3386913 0 0 0 9.76,-4.33 54.36,54.36 0 0 0 9.69,-7.28 20.55,20.55 0 0 1 -1.47,5.9 z m -9.22,-0.22 a 5.31,5.31 0 0 0 -9.35,3.48 6,6 0 0 0 0.06,0.61 59.23,59.23 0 0 1 -14.05,2.51 c -0.39,-0.41 -0.77,-0.84 -1.12,-1.29 0.6,-0.45 1.36,-0.94 2.2,-1.47 3.39,-2.16 8,-5.11 8.49,-10 a 23.34,23.34 0 0 0 -0.15,-6 c 0.19,-2 0.78,-3.21 1.87,-4 1.58,-1.09 4.29,-1.1 8,0 a 43.5,43.5 0 0 1 13.41,6.2 6,6 0 0 1 1.37,1.56 53.91,53.91 0 0 1 -10.73,8.4 z m 11.7,-12.71 a 1.8,1.8 0 0 1 -1.3,0.55 v 0 a 1.91,1.91 0 0 1 -0.63,-0.13 1.81,1.81 0 0 1 -1.13,-1.6 c 0,0 0,0 0,-0.07 a 1.81,1.81 0 0 1 0.81,-1.51 1.87,1.87 0 0 1 0.8,-0.28 h 0.19 0.12 a 1.77,1.77 0 0 1 1.44,1.04 1.81,1.81 0 0 1 0.18,0.77 1.79,1.79 0 0 1 -0.48,1.23 z"
       id="path14" />
    <path
       class="cls-1"
       d="m 211.35,38.14 a 2.65,2.65 0 1 0 -2.65,-2.65 2.65,2.65 0 0 0 2.65,2.65 z m 0,-3.9 a 1.25,1.25 0 1 1 -1.25,1.25 1.25,1.25 0 0 1 1.25,-1.25 z"
       id="path16" />
  </g>
</svg>
